<?xml version="1.0" encoding="utf-8"?>
<!-- Generator: Adobe Illustrator 15.0.0, SVG Export Plug-In . SVG Version: 6.00 Build 0)  -->
<!DOCTYPE svg PUBLIC "-//W3C//DTD SVG 1.1//EN" "http://www.w3.org/Graphics/SVG/1.1/DTD/svg11.dtd">
<svg version="1.1" id="Layer_1" xmlns="http://www.w3.org/2000/svg" xmlns:xlink="http://www.w3.org/1999/xlink" x="0px" y="0px"
	 width="204.27px" height="47px" viewBox="123.324 344.14 112.131 25.465"
	 enable-background="new 123.324 344.14 112.131 25.465" xml:space="preserve">
<g>
	<g>
		<path fill="#231F20" d="M135.836,349.26v3.774c0,0.483,0.236,0.857,0.504,1.13h-2.507c0.262-0.273,0.491-0.647,0.491-1.13v-7.491
			c0-0.485-0.217-0.886-0.491-1.173h2.507c-0.284,0.287-0.504,0.725-0.504,1.173v3.093h5.163v-3.093
			c0-0.501-0.186-0.886-0.479-1.173h2.469c-0.293,0.287-0.479,0.699-0.479,1.173v7.491c0,0.457,0.205,0.857,0.485,1.13h-2.49
			c0.294-0.273,0.492-0.673,0.492-1.158v-3.746H135.836z"/>
		<path fill="#231F20" d="M151.81,354.164h-6.501c0.281-0.273,0.49-0.656,0.49-1.13v-7.491c0-0.449-0.206-0.886-0.472-1.173h6.712
			l-0.394,1.017c-0.326-0.298-0.65-0.393-1.176-0.393h-3.159v3.638c0.915,0,1.887,0,2.95,0c0.363,0,0.733-0.049,1.14-0.188
			l-0.459,1.114c-0.297-0.272-0.604-0.304-1.143-0.304h-2.487v4.268c0.628,0,0.856,0.005,1.496,0.005c0.302,0,2.62-0.009,3.57-0.685
			L151.81,354.164z"/>
		<path fill="#231F20" d="M206.166,354.164h-6.503c0.279-0.273,0.489-0.656,0.489-1.13v-7.491c0-0.449-0.202-0.886-0.47-1.173h6.709
			l-0.393,1.017c-0.324-0.298-0.648-0.393-1.173-0.393h-3.16v3.638c0.915,0,1.886,0,2.948,0c0.363,0,0.735-0.049,1.141-0.188
			l-0.461,1.114c-0.296-0.272-0.605-0.304-1.142-0.304h-2.487v4.268c0.628,0,0.856,0.005,1.496,0.005
			c0.299,0,2.62-0.009,3.567-0.685L206.166,354.164z"/>
		<path fill="#231F20" d="M160.163,345.532v3.1v0.622v4.268c0.645,0,1.029,0.005,1.669,0.005c0.302,0,2.507-0.035,3.511-0.768
			l-0.598,1.405h-6.587c0.28-0.273,0.489-0.666,0.489-1.138v-7.483c0-0.449-0.203-0.886-0.469-1.173c0.093,0,2.438,0,2.496,0
			C160.399,344.668,160.163,345.104,160.163,345.532z"/>
		<path fill="#231F20" d="M169.083,350.873c-0.17,0.409-0.821,2.175-0.821,2.175c-0.159,0.411-0.155,0.717,0.003,1.117h-1.695
			c0.396-0.41,0.699-0.832,0.844-1.158l3.095-7.523c0.243-0.562-0.07-1.02-0.276-1.114h2.026l3.665,8.665
			c0.142,0.323,0.36,0.73,0.812,1.13h-2.374c0.168-0.392,0.185-0.707,0.01-1.117c0,0-0.83-1.911-0.936-2.175H169.083z
			 M173.196,350.246l-1.993-4.674l-1.87,4.674H173.196z"/>
		<path fill="#231F20" d="M186.881,345.543v8.621h-0.435l-7-8.147v7.017c0,0.457,0.209,0.857,0.505,1.13h-1.69
			c0.281-0.273,0.478-0.673,0.478-1.13v-7.43c0-0.424-0.097-0.588-0.369-0.893c-0.141-0.154-0.299-0.271-0.396-0.341h1.967
			l6.239,7.311v-6.137c0-0.485-0.192-0.886-0.465-1.173h1.639C187.065,344.629,186.891,345.058,186.881,345.543z"/>
		<path fill="#231F20" d="M195.993,354.223c-0.569,0.079-0.77,0.116-1.479,0.116c-3.28,0-5.444-2.264-5.444-5.017
			c0-3.068,2.354-5.111,5.468-5.111c0.479,0,0.863,0.024,1.205,0.062c0.443,0.051,0.798,0.115,1.217,0.203l0.44,1.275
			c-0.493-0.471-1.469-0.974-2.864-0.974c-2.554,0-3.762,2.129-3.762,4.536c0,2.488,1.298,4.457,3.856,4.457
			c1.014,0,2.211-0.359,2.918-1.125c-0.303,0.769-0.447,1.159-0.522,1.368C196.738,354.088,196.485,354.154,195.993,354.223z"/>
		<path fill="#231F20" d="M131.617,344.994l-3.233-0.005l0.006,8.281c0,0.433,0.305,0.749,0.503,0.895h-2.499
			c0.237-0.171,0.479-0.447,0.479-0.895l-0.003-8.277h-2.298c-0.409,0-0.883,0.111-1.247,0.3l0.411-0.923h7.031
			c0.543,0,0.927-0.062,1.271-0.23L131.617,344.994z"/>
		<path fill="#231F20" d="M216.57,344.994l-3.234-0.005l0.007,8.281c0,0.433,0.316,0.749,0.513,0.895h-2.489
			c0.237-0.171,0.461-0.447,0.461-0.895l-0.004-8.277h-2.3c-0.406,0-0.88,0.111-1.246,0.3l0.413-0.923h7.029
			c0.543,0,0.926-0.062,1.271-0.23L216.57,344.994z"/>
	</g>
	<g>
		<path fill="#9370B1" d="M124.515,359.402h1.238v10.029h-1.238V359.402z"/>
		<path fill="#9370B1" d="M128.12,362.411h1.207v1.034h0.03c0.611-0.689,1.379-1.238,2.414-1.238c0.847,0,1.474,0.376,1.818,0.94
			c0.266,0.423,0.392,0.94,0.392,1.677v4.607h-1.207v-4.435c0-0.548-0.062-0.893-0.219-1.159c-0.267-0.486-0.721-0.674-1.238-0.674
			c-0.721,0-1.473,0.455-1.989,1.003v5.266h-1.207L128.12,362.411L128.12,362.411z"/>
		<path fill="#9370B1" d="M136.506,363.304l-1.426-0.392v-0.501h1.426v-1.128c0-2.037,1.222-3.071,2.836-3.071
			c0.251,0,0.533,0.016,0.799,0.078v1.05c-0.392-0.079-0.721-0.11-1.003-0.11c-0.627,0-1.113,0.188-1.473,0.455l0.03,1.285v1.442
			h1.818v0.893h-1.818v6.127h-1.19L136.506,363.304L136.506,363.304z"/>
		<path fill="#9370B1" d="M143.637,369.604c-1.912,0-3.432-1.113-3.432-3.588c0-2.288,1.207-3.808,3.023-3.808
			c1.976,0,2.758,1.818,2.758,3.354c0,0.141,0,0.345-0.016,0.501h-4.544c0.031,1.849,0.893,2.68,2.507,2.68
			c0.784,0,1.583-0.219,1.865-0.345v0.736C145.502,369.291,144.609,369.604,143.637,369.604z M144.765,365.294
			c0-1.144-0.438-2.288-1.614-2.288c-0.956,0-1.708,0.768-1.724,2.476L144.765,365.294z"/>
		<path fill="#9370B1" d="M150.534,369.604c-2.021,0-3.479-1.238-3.479-3.495c0-2.351,1.458-3.902,3.557-3.902
			c0.424,0,0.926,0.078,1.316,0.188v1.019c-0.658-0.172-1.3-0.235-1.818-0.235c-0.454,0-0.877,0.078-1.033,0.125
			c-0.471,0.486-0.783,1.52-0.783,2.382c0,2.225,1.081,3.024,2.522,3.024c0.423,0,0.909-0.063,1.285-0.172v0.799
			C151.662,369.51,151.004,369.604,150.534,369.604z"/>
		<path fill="#9370B1" d="M155.8,369.542c-1.034,0-1.802-0.361-1.802-1.708v-4.529l-1.427-0.392v-0.501h1.427v-1.959h1.207v1.959
			h2.068v0.893h-2.068v4.404c0,0.783,0.47,0.94,1.065,0.94c0.407,0,0.831-0.078,1.098-0.141v0.737
			C157.054,369.4,156.364,369.542,155.8,369.542z"/>
		<path fill="#9370B1" d="M158.716,360.045c0-0.439,0.345-0.768,0.784-0.768c0.454,0,0.783,0.329,0.783,0.768
			c0,0.438-0.329,0.784-0.783,0.784C159.061,360.829,158.716,360.483,158.716,360.045z M158.904,362.411h1.191v7.021h-1.191V362.411
			z"/>
		<path fill="#9370B1" d="M161.82,365.906c0-2.116,1.363-3.698,3.448-3.698c2.131,0,3.416,1.583,3.416,3.698
			c0,2.115-1.363,3.698-3.447,3.698C163.121,369.604,161.82,368.021,161.82,365.906z M167.446,365.906
			c0-1.818-0.893-2.915-2.193-2.915c-1.332,0-2.194,1.097-2.194,2.915c0,1.818,0.894,2.915,2.194,2.915
			C166.584,368.82,167.446,367.724,167.446,365.906z"/>
		<path fill="#9370B1" d="M170.19,366.736v-4.325h1.207v4.419c0,1.207,0.548,1.99,1.725,1.99c1.159,0,1.724-0.783,1.724-1.99v-4.419
			h1.207v4.325c0,1.896-1.191,2.868-2.946,2.868C171.334,369.604,170.19,368.632,170.19,366.736z"/>
		<path fill="#9370B1" d="M177.541,368.46c0.47,0.172,1.128,0.282,1.738,0.282c1.285,0,1.708-0.564,1.708-1.175
			c0-1.74-3.447-0.987-3.447-3.401c0-1.269,1.082-1.958,2.414-1.958c0.831,0,1.566,0.204,1.896,0.345v0.799
			c-0.47-0.141-1.144-0.267-1.708-0.267c-0.846,0-1.411,0.298-1.411,0.972c0,1.598,3.463,0.893,3.463,3.385
			c0,1.504-1.332,2.163-2.711,2.163c-0.939,0-1.661-0.204-1.942-0.36L177.541,368.46L177.541,368.46z"/>
		<path fill="#9370B1" d="M186.82,359.402c1.207,0,3.04-0.031,4.419,0.47c1.176,0.392,2.915,1.504,2.915,4.513
			c0,2.758-1.395,3.98-2.79,4.544c-1.331,0.548-3.259,0.501-4.544,0.501V359.402z M190.22,368.413
			c1.599-0.486,2.633-1.692,2.633-3.98c0-2.523-1.238-3.479-2.304-3.886c-0.924-0.36-1.958-0.408-2.491-0.408v8.541
			C188.591,368.68,189.453,368.664,190.22,368.413z"/>
		<path fill="#9370B1" d="M195.896,360.045c0-0.439,0.346-0.768,0.784-0.768c0.454,0,0.783,0.329,0.783,0.768
			c0,0.438-0.329,0.784-0.783,0.784C196.24,360.829,195.896,360.483,195.896,360.045z M196.083,362.411h1.19v7.021h-1.19V362.411z"
			/>
		<path fill="#9370B1" d="M198.983,368.46c0.471,0.172,1.128,0.282,1.74,0.282c1.285,0,1.708-0.564,1.708-1.175
			c0-1.74-3.448-0.987-3.448-3.401c0-1.269,1.082-1.958,2.414-1.958c0.83,0,1.567,0.204,1.896,0.345v0.799
			c-0.471-0.141-1.145-0.267-1.708-0.267c-0.847,0-1.411,0.298-1.411,0.972c0,1.598,3.463,0.893,3.463,3.385
			c0,1.504-1.332,2.163-2.711,2.163c-0.94,0-1.661-0.204-1.943-0.36V368.46L198.983,368.46z"/>
		<path fill="#9370B1" d="M208.073,369.604c-1.911,0-3.432-1.113-3.432-3.588c0-2.288,1.207-3.808,3.024-3.808
			c1.975,0,2.758,1.818,2.758,3.354c0,0.141,0,0.345-0.017,0.501h-4.545c0.032,1.849,0.895,2.68,2.509,2.68
			c0.782,0,1.583-0.219,1.864-0.345v0.736C209.938,369.291,209.045,369.604,208.073,369.604z M209.201,365.294
			c0-1.144-0.438-2.288-1.614-2.288c-0.956,0-1.708,0.768-1.725,2.476L209.201,365.294z"/>
		<path fill="#9370B1" d="M211.429,367.692c0-1.74,1.551-2.367,4.074-2.429v-0.877c0-0.972-0.627-1.27-1.426-1.27
			c-0.769,0-1.553,0.235-2.194,0.533v-0.768c0.705-0.423,1.677-0.674,2.46-0.674c1.223,0,2.351,0.438,2.351,2.1v3.166
			c0,0.517,0.157,0.894,0.706,1.05l-0.36,1.065c-0.877-0.172-1.253-0.689-1.363-1.175h-0.031c-0.627,0.815-1.348,1.191-2.241,1.191
			C212.385,369.604,211.429,369.04,211.429,367.692z M215.503,367.692v-1.708c-1.99,0.047-2.836,0.596-2.836,1.583
			c0,0.689,0.392,1.144,1.112,1.144C214.484,368.711,215.111,368.334,215.503,367.692z"/>
		<path fill="#9370B1" d="M218.309,368.46c0.47,0.172,1.128,0.282,1.74,0.282c1.285,0,1.708-0.564,1.708-1.175
			c0-1.74-3.448-0.987-3.448-3.401c0-1.269,1.082-1.958,2.414-1.958c0.83,0,1.567,0.204,1.896,0.345v0.799
			c-0.471-0.141-1.145-0.267-1.708-0.267c-0.847,0-1.411,0.298-1.411,0.972c0,1.598,3.463,0.893,3.463,3.385
			c0,1.504-1.332,2.163-2.711,2.163c-0.94,0-1.661-0.204-1.943-0.36V368.46L218.309,368.46z"/>
		<path fill="#9370B1" d="M227.399,369.604c-1.912,0-3.432-1.113-3.432-3.588c0-2.288,1.207-3.808,3.024-3.808
			c1.975,0,2.758,1.818,2.758,3.354c0,0.141,0,0.345-0.017,0.501h-4.545c0.032,1.849,0.895,2.68,2.508,2.68
			c0.783,0,1.583-0.219,1.865-0.345v0.736C229.264,369.291,228.371,369.604,227.399,369.604z M228.527,365.294
			c0-1.144-0.438-2.288-1.613-2.288c-0.956,0-1.708,0.768-1.725,2.476L228.527,365.294z"/>
		<path fill="#9370B1" d="M230.802,368.46c0.47,0.172,1.128,0.282,1.739,0.282c1.285,0,1.708-0.564,1.708-1.175
			c0-1.74-3.448-0.987-3.448-3.401c0-1.269,1.082-1.958,2.414-1.958c0.831,0,1.567,0.204,1.896,0.345v0.799
			c-0.47-0.141-1.144-0.267-1.708-0.267c-0.846,0-1.41,0.298-1.41,0.972c0,1.598,3.463,0.893,3.463,3.385
			c0,1.504-1.332,2.163-2.711,2.163c-0.94,0-1.661-0.204-1.943-0.36L230.802,368.46L230.802,368.46z"/>
	</g>
</g>
</svg>
